<mxfile host="app.diagrams.net" modified="2023-07-13T16:11:19.693Z" agent="Mozilla/5.0 (Windows NT 10.0; Win64; x64) AppleWebKit/537.36 (KHTML, like Gecko) Chrome/114.0.0.0 Safari/537.36 Edg/114.0.1823.79" etag="j3S-mbmKzzZOf7fbW2rv" version="21.6.2" type="device">
  <diagram name="Page-1" id="13e1069c-82ec-6db2-03f1-153e76fe0fe0">
    <mxGraphModel dx="1583" dy="933" grid="1" gridSize="10" guides="1" tooltips="1" connect="1" arrows="1" fold="1" page="1" pageScale="1" pageWidth="1100" pageHeight="850" background="none" math="0" shadow="0">
      <root>
        <mxCell id="0" />
        <mxCell id="1" parent="0" />
        <mxCell id="7baba1c4bc27f4b0-3" value="Backend" style="shape=umlLifeline;perimeter=lifelinePerimeter;whiteSpace=wrap;html=1;container=1;collapsible=0;recursiveResize=0;outlineConnect=0;rounded=1;shadow=0;comic=0;labelBackgroundColor=none;strokeWidth=1;fontFamily=Verdana;fontSize=12;align=center;" parent="1" vertex="1">
          <mxGeometry x="400" y="80" width="100" height="720" as="geometry" />
        </mxCell>
        <mxCell id="7baba1c4bc27f4b0-13" value="" style="html=1;points=[];perimeter=orthogonalPerimeter;rounded=0;shadow=0;comic=0;labelBackgroundColor=none;strokeWidth=1;fontFamily=Verdana;fontSize=12;align=center;" parent="7baba1c4bc27f4b0-3" vertex="1">
          <mxGeometry x="45" y="200" width="10" height="300" as="geometry" />
        </mxCell>
        <mxCell id="qBDbkvtDwUS9hgoBzdMr-4" value="" style="html=1;points=[];perimeter=orthogonalPerimeter;rounded=0;shadow=0;comic=0;labelBackgroundColor=none;strokeWidth=1;fontFamily=Verdana;fontSize=12;align=center;" vertex="1" parent="7baba1c4bc27f4b0-3">
          <mxGeometry x="50" y="230" width="10" height="50" as="geometry" />
        </mxCell>
        <mxCell id="qBDbkvtDwUS9hgoBzdMr-5" value="" style="endArrow=classic;html=1;rounded=0;entryX=1.019;entryY=0.192;entryDx=0;entryDy=0;entryPerimeter=0;edgeStyle=orthogonalEdgeStyle;curved=1;" edge="1" parent="7baba1c4bc27f4b0-3" target="qBDbkvtDwUS9hgoBzdMr-4">
          <mxGeometry width="50" height="50" relative="1" as="geometry">
            <mxPoint x="55" y="210" as="sourcePoint" />
            <mxPoint x="116" y="245" as="targetPoint" />
            <Array as="points">
              <mxPoint x="90" y="210" />
              <mxPoint x="90" y="240" />
              <mxPoint x="60" y="240" />
            </Array>
          </mxGeometry>
        </mxCell>
        <mxCell id="qBDbkvtDwUS9hgoBzdMr-6" value="analizar poses &lt;br&gt;con AI" style="edgeLabel;html=1;align=center;verticalAlign=middle;resizable=0;points=[];" vertex="1" connectable="0" parent="qBDbkvtDwUS9hgoBzdMr-5">
          <mxGeometry x="0.1566" y="2" relative="1" as="geometry">
            <mxPoint x="38" y="-3" as="offset" />
          </mxGeometry>
        </mxCell>
        <mxCell id="7baba1c4bc27f4b0-4" value="Base de datos" style="shape=umlLifeline;perimeter=lifelinePerimeter;whiteSpace=wrap;html=1;container=1;collapsible=0;recursiveResize=0;outlineConnect=0;rounded=1;shadow=0;comic=0;labelBackgroundColor=none;strokeWidth=1;fontFamily=Verdana;fontSize=12;align=center;" parent="1" vertex="1">
          <mxGeometry x="550" y="80" width="100" height="720" as="geometry" />
        </mxCell>
        <mxCell id="qBDbkvtDwUS9hgoBzdMr-7" value="obtener &lt;br&gt;movimiento &lt;br&gt;correcto" style="html=1;verticalAlign=bottom;endArrow=block;labelBackgroundColor=none;fontFamily=Verdana;fontSize=12;edgeStyle=elbowEdgeStyle;elbow=vertical;entryX=-0.042;entryY=0.002;entryDx=0;entryDy=0;entryPerimeter=0;spacingTop=0;spacing=-5;exitX=0.994;exitY=0.332;exitDx=0;exitDy=0;exitPerimeter=0;" edge="1" parent="7baba1c4bc27f4b0-4" source="7baba1c4bc27f4b0-13">
          <mxGeometry x="0.0021" y="-40" relative="1" as="geometry">
            <mxPoint x="-85" y="300.28571428571433" as="sourcePoint" />
            <mxPoint x="44.57999999999993" y="300.1" as="targetPoint" />
            <mxPoint as="offset" />
          </mxGeometry>
        </mxCell>
        <mxCell id="qBDbkvtDwUS9hgoBzdMr-8" value="" style="html=1;points=[];perimeter=orthogonalPerimeter;rounded=0;shadow=0;comic=0;labelBackgroundColor=none;strokeWidth=1;fontFamily=Verdana;fontSize=12;align=center;" vertex="1" parent="7baba1c4bc27f4b0-4">
          <mxGeometry x="45" y="300" width="10" height="80" as="geometry" />
        </mxCell>
        <mxCell id="qBDbkvtDwUS9hgoBzdMr-11" value="guardar error &lt;br&gt;cometido" style="html=1;verticalAlign=bottom;endArrow=block;labelBackgroundColor=none;fontFamily=Verdana;fontSize=12;edgeStyle=elbowEdgeStyle;elbow=vertical;entryX=-0.042;entryY=0.002;entryDx=0;entryDy=0;entryPerimeter=0;spacingTop=0;spacing=-3;exitX=1.038;exitY=0.767;exitDx=0;exitDy=0;exitPerimeter=0;" edge="1" parent="7baba1c4bc27f4b0-4" source="7baba1c4bc27f4b0-13">
          <mxGeometry x="-0.0018" y="-30" relative="1" as="geometry">
            <mxPoint x="-84.57999999999998" y="430.1857142857143" as="sourcePoint" />
            <mxPoint x="44.999999999999886" y="430" as="targetPoint" />
            <mxPoint as="offset" />
          </mxGeometry>
        </mxCell>
        <mxCell id="qBDbkvtDwUS9hgoBzdMr-12" value="" style="html=1;points=[];perimeter=orthogonalPerimeter;rounded=0;shadow=0;comic=0;labelBackgroundColor=none;strokeWidth=1;fontFamily=Verdana;fontSize=12;align=center;" vertex="1" parent="7baba1c4bc27f4b0-4">
          <mxGeometry x="45" y="430" width="10" height="40" as="geometry" />
        </mxCell>
        <mxCell id="7baba1c4bc27f4b0-8" value="Esgrimista" style="shape=umlLifeline;perimeter=lifelinePerimeter;whiteSpace=wrap;html=1;container=1;collapsible=0;recursiveResize=0;outlineConnect=0;rounded=1;shadow=0;comic=0;labelBackgroundColor=none;strokeWidth=1;fontFamily=Verdana;fontSize=12;align=center;" parent="1" vertex="1">
          <mxGeometry x="100" y="80" width="100" height="720" as="geometry" />
        </mxCell>
        <mxCell id="7baba1c4bc27f4b0-9" value="" style="html=1;points=[];perimeter=orthogonalPerimeter;rounded=0;shadow=0;comic=0;labelBackgroundColor=none;strokeWidth=1;fontFamily=Verdana;fontSize=12;align=center;" parent="7baba1c4bc27f4b0-8" vertex="1">
          <mxGeometry x="45" y="100" width="10" height="590" as="geometry" />
        </mxCell>
        <mxCell id="7baba1c4bc27f4b0-11" value="iniciar &lt;br&gt;entrenamiento" style="html=1;verticalAlign=bottom;endArrow=block;entryX=0;entryY=0;labelBackgroundColor=none;fontFamily=Verdana;fontSize=12;edgeStyle=elbowEdgeStyle;elbow=vertical;" parent="1" source="7baba1c4bc27f4b0-9" target="7baba1c4bc27f4b0-10" edge="1">
          <mxGeometry relative="1" as="geometry">
            <mxPoint x="220" y="190" as="sourcePoint" />
          </mxGeometry>
        </mxCell>
        <mxCell id="7baba1c4bc27f4b0-14" value="enviar poses &lt;br&gt;detectadas" style="html=1;verticalAlign=bottom;endArrow=block;entryX=0;entryY=0;labelBackgroundColor=none;fontFamily=Verdana;fontSize=12;edgeStyle=elbowEdgeStyle;elbow=vertical;" parent="1" edge="1">
          <mxGeometry relative="1" as="geometry">
            <mxPoint x="295" y="280.28571428571433" as="sourcePoint" />
            <mxPoint x="445" y="280.0000000000002" as="targetPoint" />
          </mxGeometry>
        </mxCell>
        <mxCell id="qBDbkvtDwUS9hgoBzdMr-9" value="" style="endArrow=classic;html=1;rounded=0;dashed=1;exitX=-0.013;exitY=0.99;exitDx=0;exitDy=0;exitPerimeter=0;entryX=1.072;entryY=0.599;entryDx=0;entryDy=0;entryPerimeter=0;" edge="1" parent="1" source="qBDbkvtDwUS9hgoBzdMr-8" target="7baba1c4bc27f4b0-13">
          <mxGeometry width="50" height="50" relative="1" as="geometry">
            <mxPoint x="460" y="400" as="sourcePoint" />
            <mxPoint x="510" y="350" as="targetPoint" />
          </mxGeometry>
        </mxCell>
        <mxCell id="qBDbkvtDwUS9hgoBzdMr-10" value="movimiento &lt;br&gt;correcto" style="edgeLabel;html=1;align=center;verticalAlign=middle;resizable=0;points=[];spacing=-4;" vertex="1" connectable="0" parent="qBDbkvtDwUS9hgoBzdMr-9">
          <mxGeometry x="-0.1731" relative="1" as="geometry">
            <mxPoint x="-6" y="17" as="offset" />
          </mxGeometry>
        </mxCell>
        <mxCell id="qBDbkvtDwUS9hgoBzdMr-13" value="" style="endArrow=classic;html=1;rounded=0;dashed=1;exitX=0.05;exitY=0.999;exitDx=0;exitDy=0;exitPerimeter=0;entryX=1.043;entryY=0.728;entryDx=0;entryDy=0;entryPerimeter=0;" edge="1" parent="1" source="7baba1c4bc27f4b0-13" target="7baba1c4bc27f4b0-10">
          <mxGeometry width="50" height="50" relative="1" as="geometry">
            <mxPoint x="449" y="550" as="sourcePoint" />
            <mxPoint x="300" y="550" as="targetPoint" />
          </mxGeometry>
        </mxCell>
        <mxCell id="qBDbkvtDwUS9hgoBzdMr-14" value="resultado de anÃ¡lisis" style="edgeLabel;html=1;align=center;verticalAlign=middle;resizable=0;points=[];spacing=-4;" vertex="1" connectable="0" parent="qBDbkvtDwUS9hgoBzdMr-13">
          <mxGeometry x="-0.1731" relative="1" as="geometry">
            <mxPoint x="-9" y="9" as="offset" />
          </mxGeometry>
        </mxCell>
        <mxCell id="qBDbkvtDwUS9hgoBzdMr-15" value="opt" style="shape=umlFrame;whiteSpace=wrap;html=1;pointerEvents=0;width=40;height=20;" vertex="1" parent="1">
          <mxGeometry x="390" y="370" width="240" height="190" as="geometry" />
        </mxCell>
        <mxCell id="qBDbkvtDwUS9hgoBzdMr-18" value="Se almacena y retorna el error cometido solo de existirlo" style="shape=note;whiteSpace=wrap;html=1;backgroundOutline=1;darkOpacity=0.05;size=15;" vertex="1" parent="1">
          <mxGeometry x="650" y="410" width="120" height="80" as="geometry" />
        </mxCell>
        <mxCell id="7baba1c4bc27f4b0-2" value="Frontend" style="shape=umlLifeline;perimeter=lifelinePerimeter;whiteSpace=wrap;html=1;container=1;collapsible=0;recursiveResize=0;outlineConnect=0;rounded=1;shadow=0;comic=0;labelBackgroundColor=none;strokeWidth=1;fontFamily=Verdana;fontSize=12;align=center;" parent="1" vertex="1">
          <mxGeometry x="248.13" y="80" width="100" height="720" as="geometry" />
        </mxCell>
        <mxCell id="7baba1c4bc27f4b0-10" value="" style="html=1;points=[];perimeter=orthogonalPerimeter;rounded=0;shadow=0;comic=0;labelBackgroundColor=none;strokeWidth=1;fontFamily=Verdana;fontSize=12;align=center;" parent="7baba1c4bc27f4b0-2" vertex="1">
          <mxGeometry x="45" y="100" width="10" height="550" as="geometry" />
        </mxCell>
        <mxCell id="qBDbkvtDwUS9hgoBzdMr-1" value="" style="html=1;points=[];perimeter=orthogonalPerimeter;rounded=0;shadow=0;comic=0;labelBackgroundColor=none;strokeWidth=1;fontFamily=Verdana;fontSize=12;align=center;" vertex="1" parent="7baba1c4bc27f4b0-2">
          <mxGeometry x="50" y="130" width="10" height="50" as="geometry" />
        </mxCell>
        <mxCell id="qBDbkvtDwUS9hgoBzdMr-2" value="" style="endArrow=classic;html=1;rounded=0;exitX=0.994;exitY=0.019;exitDx=0;exitDy=0;exitPerimeter=0;entryX=1.103;entryY=0.299;entryDx=0;entryDy=0;entryPerimeter=0;edgeStyle=orthogonalEdgeStyle;curved=1;" edge="1" parent="7baba1c4bc27f4b0-2" source="7baba1c4bc27f4b0-10" target="qBDbkvtDwUS9hgoBzdMr-1">
          <mxGeometry width="50" height="50" relative="1" as="geometry">
            <mxPoint x="120" y="200" as="sourcePoint" />
            <mxPoint x="170" y="150" as="targetPoint" />
            <Array as="points">
              <mxPoint x="80" y="111" />
              <mxPoint x="80" y="145" />
            </Array>
          </mxGeometry>
        </mxCell>
        <mxCell id="qBDbkvtDwUS9hgoBzdMr-3" value="capturar &lt;br&gt;poses con AI" style="edgeLabel;html=1;align=center;verticalAlign=middle;resizable=0;points=[];" vertex="1" connectable="0" parent="qBDbkvtDwUS9hgoBzdMr-2">
          <mxGeometry x="0.1566" y="2" relative="1" as="geometry">
            <mxPoint x="34" y="-3" as="offset" />
          </mxGeometry>
        </mxCell>
        <mxCell id="qBDbkvtDwUS9hgoBzdMr-22" value="alt" style="shape=umlFrame;whiteSpace=wrap;html=1;pointerEvents=0;width=40;height=20;" vertex="1" parent="1">
          <mxGeometry x="90" y="600" width="230" height="160" as="geometry" />
        </mxCell>
        <mxCell id="qBDbkvtDwUS9hgoBzdMr-24" value="" style="endArrow=classic;html=1;rounded=0;dashed=1;exitX=0.025;exitY=0.837;exitDx=0;exitDy=0;exitPerimeter=0;entryX=1.08;entryY=0.78;entryDx=0;entryDy=0;entryPerimeter=0;" edge="1" parent="1" source="7baba1c4bc27f4b0-10" target="7baba1c4bc27f4b0-9">
          <mxGeometry width="50" height="50" relative="1" as="geometry">
            <mxPoint x="285.5" y="640" as="sourcePoint" />
            <mxPoint x="160" y="640" as="targetPoint" />
          </mxGeometry>
        </mxCell>
        <mxCell id="qBDbkvtDwUS9hgoBzdMr-25" value="pausar, mostrar error &lt;br&gt;y forma correcta" style="edgeLabel;html=1;align=center;verticalAlign=middle;resizable=0;points=[];spacing=-4;" vertex="1" connectable="0" parent="qBDbkvtDwUS9hgoBzdMr-24">
          <mxGeometry x="-0.1731" relative="1" as="geometry">
            <mxPoint x="-11" y="16" as="offset" />
          </mxGeometry>
        </mxCell>
        <mxCell id="qBDbkvtDwUS9hgoBzdMr-26" value="" style="endArrow=none;dashed=1;html=1;strokeWidth=2;rounded=0;exitX=0.001;exitY=0.609;exitDx=0;exitDy=0;exitPerimeter=0;entryX=0.996;entryY=0.618;entryDx=0;entryDy=0;entryPerimeter=0;" edge="1" parent="1">
          <mxGeometry width="50" height="50" relative="1" as="geometry">
            <mxPoint x="90.23000000000002" y="686.1699999999998" as="sourcePoint" />
            <mxPoint x="319.08000000000004" y="687.3399999999999" as="targetPoint" />
          </mxGeometry>
        </mxCell>
        <mxCell id="qBDbkvtDwUS9hgoBzdMr-28" value="[se comete error]" style="text;html=1;strokeColor=none;fillColor=none;align=center;verticalAlign=middle;whiteSpace=wrap;rounded=0;fontStyle=1" vertex="1" parent="1">
          <mxGeometry x="158.5" y="600" width="102.5" height="20" as="geometry" />
        </mxCell>
        <mxCell id="qBDbkvtDwUS9hgoBzdMr-29" value="[no hay error]" style="text;html=1;strokeColor=none;fillColor=none;align=center;verticalAlign=middle;whiteSpace=wrap;rounded=0;fontStyle=1" vertex="1" parent="1">
          <mxGeometry x="161.88" y="691" width="86.25" height="20" as="geometry" />
        </mxCell>
        <mxCell id="qBDbkvtDwUS9hgoBzdMr-30" value="" style="endArrow=classic;html=1;rounded=0;dashed=1;exitX=-0.024;exitY=0.993;exitDx=0;exitDy=0;exitPerimeter=0;entryX=1.051;entryY=0.927;entryDx=0;entryDy=0;entryPerimeter=0;" edge="1" parent="1" source="7baba1c4bc27f4b0-10" target="7baba1c4bc27f4b0-9">
          <mxGeometry width="50" height="50" relative="1" as="geometry">
            <mxPoint x="284.25" y="720" as="sourcePoint" />
            <mxPoint x="150" y="720" as="targetPoint" />
          </mxGeometry>
        </mxCell>
        <mxCell id="qBDbkvtDwUS9hgoBzdMr-31" value="continuar &lt;br&gt;entrenamiento" style="edgeLabel;html=1;align=center;verticalAlign=middle;resizable=0;points=[];spacing=-4;" vertex="1" connectable="0" parent="qBDbkvtDwUS9hgoBzdMr-30">
          <mxGeometry x="-0.1731" relative="1" as="geometry">
            <mxPoint x="-11" y="15" as="offset" />
          </mxGeometry>
        </mxCell>
        <mxCell id="qBDbkvtDwUS9hgoBzdMr-32" value="Si el backend detectÃ³ un error, mostrarlo; si no, continuar entrenando" style="shape=note;whiteSpace=wrap;html=1;backgroundOutline=1;darkOpacity=0.05;size=15;" vertex="1" parent="1">
          <mxGeometry x="10" y="500" width="120" height="90" as="geometry" />
        </mxCell>
      </root>
    </mxGraphModel>
  </diagram>
</mxfile>
